<svg width="228" height="155" viewBox="0 0 228 155" fill="none" xmlns="http://www.w3.org/2000/svg">
<path d="M228 76C228 114.66 196.66 146 158 146C119.34 146 88 114.66 88 76C88 37.3401 119.34 6 158 6C196.66 6 228 37.3401 228 76ZM106.99 76C106.99 104.172 129.828 127.01 158 127.01C186.172 127.01 209.01 104.172 209.01 76C209.01 47.8281 186.172 24.9902 158 24.9902C129.828 24.9902 106.99 47.8281 106.99 76Z" fill="#E50914"/>
<g filter="url(#filter0_d_1_7)">
<path d="M119 42C135.089 49.8062 131.799 25.5442 140 15C143.413 5.0782 147.503 2.19609 158 1C176.053 2.6945 181.523 6.53202 179 21C179 21 201 0.999998 201 15C201 29 192 42 179 36C166 30 158 42 158 42C158 42 173.16 51.2277 172 65L158 103H119L73 126C79.176 132.135 80.6074 136.463 79 146C60.6011 137.627 54.9769 133.38 47 126H15C10.5063 118.266 14.6968 115.767 32 114L6 110C14.647 102.658 19.1675 101.926 27 103L9 93C17.7369 82.7717 22.8021 82.6666 32 88L67 114L98 88L86 65C84.1972 56.8811 102.911 34.1938 119 42Z" fill="#FDFDFD"/>
<path d="M172 65C173.16 51.2277 158 42 158 42C158 42 166 30 179 36C192 42 201 29 201 15C201 0.999998 179 21 179 21C181.523 6.53202 176.053 2.6945 158 1C147.503 2.19609 143.413 5.0782 140 15C131.799 25.5442 135.089 49.8062 119 42C102.911 34.1938 84.1972 56.8811 86 65L98 88L67 114L32 88C22.8021 82.6666 17.7369 82.7717 9 93L27 103C19.1675 101.926 14.647 102.658 6 110L32 114C14.6968 115.767 10.5063 118.266 15 126H47C54.9769 133.38 60.6011 137.627 79 146C80.6074 136.463 79.176 132.135 73 126L119 103H158L172 65ZM172 65C179 55 201 78 201 78" stroke="black"/>
</g>
<rect x="109" y="110.56" width="112" height="23" transform="rotate(-41.737 109 110.56)" fill="#E50914"/>
<defs>
<filter id="filter0_d_1_7" x="0.841599" y="0.49733" width="204.658" height="154.227" filterUnits="userSpaceOnUse" color-interpolation-filters="sRGB">
<feFlood flood-opacity="0" result="BackgroundImageFix"/>
<feColorMatrix in="SourceAlpha" type="matrix" values="0 0 0 0 0 0 0 0 0 0 0 0 0 0 0 0 0 0 127 0" result="hardAlpha"/>
<feOffset dy="4"/>
<feGaussianBlur stdDeviation="2"/>
<feComposite in2="hardAlpha" operator="out"/>
<feColorMatrix type="matrix" values="0 0 0 0 0 0 0 0 0 0 0 0 0 0 0 0 0 0 0.25 0"/>
<feBlend mode="normal" in2="BackgroundImageFix" result="effect1_dropShadow_1_7"/>
<feBlend mode="normal" in="SourceGraphic" in2="effect1_dropShadow_1_7" result="shape"/>
</filter>
</defs>
</svg>
