<svg width="942" height="616" viewBox="0 0 942 616" fill="none" xmlns="http://www.w3.org/2000/svg">
<path d="M706 308C706 439.444 599.444 546 468 546C336.556 546 230 439.444 230 308C230 176.556 336.556 70 468 70C599.444 70 706 176.556 706 308ZM279.784 308C279.784 411.949 364.051 496.216 468 496.216C571.949 496.216 656.216 411.949 656.216 308C656.216 204.051 571.949 119.784 468 119.784C364.051 119.784 279.784 204.051 279.784 308Z" fill="white"/>
<path d="M500 94C500 126.83 493.534 159.339 480.97 189.671C468.406 220.002 449.991 247.562 426.777 270.777C403.562 293.991 376.002 312.406 345.671 324.97C315.339 337.534 282.83 344 250 344L250 289.514C275.675 289.514 301.099 284.456 324.82 274.631C348.541 264.806 370.094 250.404 388.249 232.249C406.404 214.094 420.806 192.541 430.631 168.82C440.456 145.099 445.514 119.675 445.514 94H500Z" fill="white"/>
<path d="M250 286C282.83 286 315.339 292.466 345.671 305.03C376.002 317.594 403.562 336.009 426.777 359.223C449.991 382.438 468.406 409.998 480.97 440.329C493.534 470.661 500 503.17 500 536L445.514 536C445.514 510.325 440.456 484.901 430.631 461.18C420.806 437.459 406.404 415.906 388.249 397.751C370.094 379.596 348.541 365.194 324.82 355.369C301.099 345.544 275.675 340.486 250 340.486V286Z" fill="white"/>
<path d="M442 536C442 503.17 448.466 470.661 461.03 440.329C473.594 409.998 492.009 382.438 515.223 359.223C538.438 336.009 565.998 317.594 596.329 305.03C626.661 292.466 659.17 286 692 286L692 340.486C666.325 340.486 640.901 345.544 617.18 355.369C593.459 365.194 571.906 379.596 553.751 397.751C535.596 415.906 521.194 437.459 511.369 461.18C501.544 484.901 496.486 510.325 496.486 536H442Z" fill="white"/>
<path d="M692 344C659.17 344 626.661 337.534 596.329 324.97C565.998 312.406 538.438 293.991 515.223 270.777C492.009 247.562 473.594 220.002 461.03 189.671C448.466 159.339 442 126.83 442 94L496.486 94C496.486 119.675 501.544 145.099 511.369 168.82C521.194 192.541 535.596 214.094 553.751 232.249C571.906 250.404 593.459 264.806 617.18 274.631C640.901 284.456 666.325 289.514 692 289.514V344Z" fill="white"/>
</svg>
