<svg width="15" height="15" viewBox="0 0 15 15" fill="none" xmlns="http://www.w3.org/2000/svg">
<path d="M6.6487 11.3107H8.12619V9.89686H6.6487V11.3107ZM7.38745 0C3.30958 0 0 3.167 0 7.06919C0 10.9714 3.30958 14.1384 7.38745 14.1384C11.4653 14.1384 14.7749 10.9714 14.7749 7.06919C14.7749 3.167 11.4653 0 7.38745 0ZM7.38745 12.7245C4.12958 12.7245 1.47749 10.1867 1.47749 7.06919C1.47749 3.95168 4.12958 1.41384 7.38745 1.41384C10.6453 1.41384 13.2974 3.95168 13.2974 7.06919C13.2974 10.1867 10.6453 12.7245 7.38745 12.7245ZM7.38745 2.82768C5.75482 2.82768 4.43247 4.09306 4.43247 5.65535H5.90996C5.90996 4.87774 6.57483 4.24151 7.38745 4.24151C8.20007 4.24151 8.86494 4.87774 8.86494 5.65535C8.86494 7.06919 6.6487 6.89246 6.6487 9.18995H8.12619C8.12619 7.59938 10.3424 7.42265 10.3424 5.65535C10.3424 4.09306 9.02007 2.82768 7.38745 2.82768Z" fill="white"/>
</svg>
